<?xml version="1.0" encoding="UTF-8"?>
<svg width="48px" height="48px" viewBox="0 0 48 48" version="1.1" xmlns="http://www.w3.org/2000/svg">
    <title>Calculator Icon</title>
    <g stroke="none" stroke-width="1" fill="none" fill-rule="evenodd">
        <rect fill="#6C757D" x="0" y="0" width="48" height="48" rx="8"></rect>
        <g transform="translate(14.000000, 8.000000)" fill="#FFFFFF" fill-rule="nonzero">
            <path d="M18,0 L2,0 C0.9,0 0,0.9 0,2 L0,30 C0,31.1 0.9,32 2,32 L18,32 C19.1,32 20,31.1 20,30 L20,2 C20,0.9 19.1,0 18,0 Z M18,30 L2,30 L2,2 L18,2 L18,30 Z"></path>
            <rect x="4" y="6" width="12" height="4" rx="1"></rect>
            <rect x="4" y="14" width="4" height="4" rx="1"></rect>
            <rect x="8" y="14" width="4" height="4" rx="1"></rect>
            <rect x="12" y="14" width="4" height="4" rx="1"></rect>
            <rect x="4" y="18" width="4" height="4" rx="1"></rect>
            <rect x="8" y="18" width="4" height="4" rx="1"></rect>
            <rect x="12" y="18" width="4" height="4" rx="1"></rect>
            <rect x="4" y="22" width="4" height="4" rx="1"></rect>
            <rect x="8" y="22" width="4" height="4" rx="1"></rect>
            <rect x="12" y="22" width="4" height="4" rx="1"></rect>
        </g>
    </g>
</svg>
