<?xml version="1.0" encoding="UTF-8"?>
<svg width="48px" height="48px" viewBox="0 0 48 48" version="1.1" xmlns="http://www.w3.org/2000/svg">
    <title>Code Formatter Icon</title>
    <g stroke="none" stroke-width="1" fill="none" fill-rule="evenodd">
        <rect fill="#343A40" x="0" y="0" width="48" height="48" rx="8"></rect>
        <g transform="translate(12.000000, 12.000000)" fill="#FFFFFF" fill-rule="nonzero">
            <path d="M9.4,16.6 L4.8,12 L9.4,7.4 C9.8,7 9.8,6.4 9.4,6 C9,5.6 8.4,5.6 8,6 L2.6,11.4 C2.2,11.8 2.2,12.4 2.6,12.8 L8,18.2 C8.4,18.6 9,18.6 9.4,18.2 C9.8,17.8 9.8,17 9.4,16.6 Z"></path>
            <path d="M14.6,16.6 L19.2,12 L14.6,7.4 C14.2,7 14.2,6.4 14.6,6 C15,5.6 15.6,5.6 16,6 L21.4,11.4 C21.8,11.8 21.8,12.4 21.4,12.8 L16,18.2 C15.6,18.6 15,18.6 14.6,18.2 C14.2,17.8 14.2,17 14.6,16.6 Z" transform="translate(18.000000, 12.000000) scale(-1, 1) translate(-18.000000, -12.000000) "></path>
        </g>
    </g>
</svg>
