<?xml version="1.0" encoding="UTF-8"?>
<svg width="32px" height="32px" viewBox="0 0 32 32" version="1.1" xmlns="http://www.w3.org/2000/svg">
    <title>JSON Icon</title>
    <g stroke="none" stroke-width="1" fill="none" fill-rule="evenodd">
        <circle fill="#17A2B8" cx="16" cy="16" r="16"></circle>
        <g transform="translate(8.000000, 8.000000)" fill="#FFFFFF" fill-rule="nonzero">
            <path d="M14,0 L2,0 C0.9,0 0,0.9 0,2 L0,14 C0,15.1 0.9,16 2,16 L14,16 C15.1,16 16,15.1 16,14 L16,2 C16,0.9 15.1,0 14,0 Z M14,14 L2,14 L2,2 L14,2 L14,14 Z"></path>
            <path d="M4,8 C4,9.1 3.1,10 2,10 L2,12 C4.2,12 6,10.2 6,8 C6,5.8 4.2,4 2,4 L2,6 C3.1,6 4,6.9 4,8 Z"></path>
            <path d="M12,8 C12,6.9 12.9,6 14,6 L14,4 C11.8,4 10,5.8 10,8 C10,10.2 11.8,12 14,12 L14,10 C12.9,10 12,9.1 12,8 Z"></path>
        </g>
    </g>
</svg>
