<?xml version="1.0" encoding="UTF-8"?>
<svg width="32px" height="32px" viewBox="0 0 32 32" version="1.1" xmlns="http://www.w3.org/2000/svg">
    <title>Color Palette Icon</title>
    <g stroke="none" stroke-width="1" fill="none" fill-rule="evenodd">
        <circle fill="#E83E8C" cx="16" cy="16" r="16"></circle>
        <path d="M16,6 C10.48,6 6,10.48 6,16 C6,21.52 10.48,26 16,26 C16.83,26 17.5,25.33 17.5,24.5 C17.5,24.12 17.35,23.76 17.11,23.5 C16.88,23.23 16.73,22.88 16.73,22.5 C16.73,21.67 17.4,21 18.23,21 L20,21 C23.31,21 26,18.31 26,15 C26,10.03 21.51,6 16,6 Z M10,16 C9.17,16 8.5,15.33 8.5,14.5 C8.5,13.67 9.17,13 10,13 C10.83,13 11.5,13.67 11.5,14.5 C11.5,15.33 10.83,16 10,16 Z M13,12 C12.17,12 11.5,11.33 11.5,10.5 C11.5,9.67 12.17,9 13,9 C13.83,9 14.5,9.67 14.5,10.5 C14.5,11.33 13.83,12 13,12 Z M19,12 C18.17,12 17.5,11.33 17.5,10.5 C17.5,9.67 18.17,9 19,9 C19.83,9 20.5,9.67 20.5,10.5 C20.5,11.33 19.83,12 19,12 Z M22,16 C21.17,16 20.5,15.33 20.5,14.5 C20.5,13.67 21.17,13 22,13 C22.83,13 23.5,13.67 23.5,14.5 C23.5,15.33 22.83,16 22,16 Z" fill="#FFFFFF" fill-rule="nonzero"></path>
    </g>
</svg>
