<?xml version="1.0" encoding="UTF-8"?>
<svg width="48px" height="48px" viewBox="0 0 48 48" version="1.1" xmlns="http://www.w3.org/2000/svg">
    <title>Password Generator Icon</title>
    <g stroke="none" stroke-width="1" fill="none" fill-rule="evenodd">
        <rect fill="#FD7E14" x="0" y="0" width="48" height="48" rx="8"></rect>
        <g transform="translate(12.000000, 12.000000)" fill="#FFFFFF" fill-rule="nonzero">
            <path d="M20,8 L18,8 L18,6 C18,2.7 15.3,0 12,0 C8.7,0 6,2.7 6,6 L6,8 L4,8 C2.9,8 2,8.9 2,10 L2,22 C2,23.1 2.9,24 4,24 L20,24 C21.1,24 22,23.1 22,22 L22,10 C22,8.9 21.1,8 20,8 Z M12,18 C10.9,18 10,17.1 10,16 C10,14.9 10.9,14 12,14 C13.1,14 14,14.9 14,16 C14,17.1 13.1,18 12,18 Z M15.1,8 L8.9,8 L8.9,6 C8.9,4.3 10.3,2.9 12,2.9 C13.7,2.9 15.1,4.3 15.1,6 L15.1,8 Z"></path>
        </g>
    </g>
</svg>
